<svg width="345" height="300" viewBox="0 0 345 633" fill="none" xmlns="http://www.w3.org/2000/svg">
<path fill-rule="evenodd" clip-rule="evenodd" d="M-151.408 492.353C-237.306 499.199 -375.61 544.383 -394.195 445.629C-416.615 326.489 -257.702 243.017 -221.326 120.814C-203.527 61.018 -262.406 7.57586 -245.889 -52.6003C-227.419 -119.896 -183.64 -182.417 -129.961 -212.064C-75.7563 -242.002 -17.6263 -224.286 36.3871 -208.506C89.4648 -192.999 135.767 -164.137 176.36 -122.57C225.688 -72.0593 309.32 -26.5719 294.825 56.1294C279.374 144.291 166.775 151.323 116.047 221.559C76.2795 276.62 84.7118 364.273 38.4117 411.151C-15.5858 465.823 -84.7638 487.042 -151.408 492.353Z" fill="#1584A2"/>
</svg>
