<svg width="319" height="509" viewBox="0 0 319 509" fill="none" xmlns="http://www.w3.org/2000/svg">
<path fill-rule="evenodd" clip-rule="evenodd" d="M-129.402 492.353C-215.3 499.199 -353.604 544.383 -372.189 445.629C-394.609 326.489 -235.696 243.017 -199.32 120.814C-181.521 61.018 -240.4 7.57586 -223.883 -52.6003C-205.413 -119.896 -161.634 -182.417 -107.955 -212.064C-53.7503 -242.002 4.37967 -224.286 58.393 -208.506C111.471 -192.999 157.773 -164.137 198.366 -122.57C247.694 -72.0593 331.326 -26.5719 316.831 56.1294C301.38 144.291 188.781 151.323 138.053 221.559C98.2855 276.62 106.718 364.273 60.4176 411.151C6.42014 465.823 -62.7578 487.042 -129.402 492.353Z" fill="#54D725" fill-opacity="0.22"/>
</svg>
