<svg width="164" height="495" viewBox="0 0 164 495" fill="none" xmlns="http://www.w3.org/2000/svg">
<path fill-rule="evenodd" clip-rule="evenodd" d="M-83.9076 37.4378C-27.4846 28.0837 44.0727 -26.6079 82.1085 16.1132C123.795 62.9347 43.1814 137.543 59.1879 198.16C73.5363 252.498 169.958 269.285 163.709 325.138C157.888 377.177 78.831 379.658 35.5822 409.165C-5.7933 437.393 -34.197 487.968 -83.9076 494.075C-135.56 500.421 -185.592 473.173 -226.814 441.402C-267.178 410.291 -291.837 365.649 -311.526 318.639C-332.932 267.531 -364.573 211.634 -344.712 159.906C-324.967 108.479 -264.092 88.6538 -214.237 65.2427C-173.019 45.8875 -128.829 44.8851 -83.9076 37.4378Z" fill="#419BB4"/>
</svg>
