<svg width="1141" height="522" viewBox="0 0 1141 522" fill="none" xmlns="http://www.w3.org/2000/svg">
<path fill-rule="evenodd" clip-rule="evenodd" d="M-461.999 188.491C-462.346 139.92 -400.324 91.4798 -306.852 56.9869C-220.203 25.0115 -91.0325 16.209 29.5057 7.11604C124.607 -0.0580526 218.839 7.72833 315.739 10.021C406.118 12.1593 490.865 18.9132 581.367 20.1731C759.975 22.6596 987.352 -27.0421 1108.44 21.0567C1216.22 63.8728 1023.43 130.67 1005.1 188.491C989.454 237.811 1074.09 291.352 1008.9 334.9C943.669 378.474 800.919 400.135 669.506 412.658C552.941 423.767 436.194 400.809 315.739 400.959C194.736 401.11 74.4878 428.475 -39.425 413.544C-157.353 398.086 -234.047 357.373 -304.976 319.598C-380.101 279.588 -461.652 237.031 -461.999 188.491Z" fill="#F2F1EF"/>
<path fill-rule="evenodd" clip-rule="evenodd" d="M-830.999 396.813C-831.346 370.32 -769.324 343.898 -675.852 325.084C-589.203 307.643 -460.032 302.841 -339.494 297.882C-244.393 293.968 -150.161 298.215 -53.261 299.466C37.1176 300.632 121.865 304.316 212.367 305.004C390.975 306.36 618.352 279.25 739.438 305.485C847.225 328.84 654.434 365.275 636.096 396.813C620.454 423.715 705.094 452.92 639.901 476.673C574.669 500.44 431.919 512.255 300.506 519.086C183.941 525.146 67.1936 512.623 -53.2609 512.705C-174.264 512.787 -294.512 527.714 -408.425 519.569C-526.353 511.138 -603.047 488.931 -673.976 468.326C-749.101 446.503 -830.652 423.29 -830.999 396.813Z" fill="#F2F1EF"/>
</svg>
