<svg width="370" height="666" viewBox="0 0 370 666" fill="none" xmlns="http://www.w3.org/2000/svg">
<path fill-rule="evenodd" clip-rule="evenodd" d="M250.017 47.7149C301.771 4.29833 377.506 -9.1123 443.311 6.20815C508.175 21.3098 554.986 75.1962 595.432 128.133C632.586 176.762 661.533 232.769 663.15 293.942C664.68 351.821 632.058 402.065 604.012 452.701C575.917 503.424 547.763 553.471 500.673 587.286C445.445 626.945 379.669 682.25 315.427 659.932C249.946 637.184 261.601 532.976 210.249 486.392C150.043 431.776 7.44183 455.221 0.482957 374.229C-6.59334 291.872 137.259 286.517 187.434 220.863C225.628 170.886 201.832 88.1376 250.017 47.7149Z" fill="#1584A2"/>
</svg>
